<svg width="198" height="212" viewBox="0 0 198 212" fill="none" xmlns="http://www.w3.org/2000/svg">
<path d="M176.85 165.447C178.133 148.763 170.404 138.059 158.27 127.676C143.016 114.696 123.299 106.734 103.174 106.821H75.8151C97.8361 106.704 119.303 116.242 135.053 131.409C139.107 135.521 143.132 139.838 145.787 145.03C149.724 152.992 150.512 162.326 148.674 170.989C146.399 183.034 137.27 192.105 126.653 197.501C110.145 206.572 93.7528 210.86 72.1692 210.889C99.7903 211.006 125.924 212.493 149.608 199.806C164.599 192.689 175.508 182.889 176.82 165.447H176.85Z" fill="#FAFBFC" stroke="#0F142D" stroke-miterlimit="10"/>
<path d="M75.8151 106.851C101.365 106.734 127.178 119.684 142.899 140.393C151.795 152.293 151.766 171.543 143.278 183.677C137.795 191.493 130.182 195.839 122.249 199.806C90.0778 215.906 48.9523 215.264 16.2561 192.66C5.20183 185.222 -0.89407 169.239 1.52679 155.676C3.42264 145.089 9.28521 137.476 16.5186 130.68C33.0855 115.017 53.5607 106.88 75.786 106.822L75.8151 106.851Z" fill="#FAFBFC" stroke="#0F142D" stroke-miterlimit="10"/>
<path d="M146.107 47.1748C146.282 28.4787 134.732 9.84102 116.853 3.45345C112.507 1.9076 107.899 1.0326 103.29 1.00343H75.5815C94.9192 0.740932 112.04 15.5578 116.911 33.8746C125.107 61.7291 105.507 93.142 75.4648 93.2586C83.3108 92.9378 106.149 94.2795 113.236 91.8878C125.807 88.5627 136.278 79.1126 141.703 67.4167C143.57 63.3625 144.853 59.1041 145.553 54.6999V54.6415C145.932 52.1623 146.107 49.654 146.107 47.1748Z" fill="#FAFBFC" stroke="#0F142D" stroke-miterlimit="10"/>
<path d="M75.5818 1.00366C99.6155 1.00366 118.953 21.9747 118.749 47.7292C115.599 108.805 33.6689 107.93 32.0647 46.3583C32.2105 21.333 51.7524 1.00366 75.611 1.00366H75.5818Z" fill="#FAFBFC" stroke="#0F142D" stroke-miterlimit="10"/>
<path d="M196.712 105.392C197.15 99.8211 196.45 94.1335 194.641 88.8251C193.416 85.2959 191.725 81.9709 189.625 78.9375C187.554 75.9917 185.074 73.3375 182.245 71.0916C179.941 69.2541 177.404 67.7082 174.72 66.454C170.578 64.5874 166.087 63.5082 161.537 63.4207C161.187 63.3915 160.837 63.4207 160.487 63.4207H133.128C144.678 63.3332 155.732 69.5458 162.266 78.9667C164.366 82.0292 166.058 85.3543 167.283 88.8251C175.712 112.684 159.349 140.772 133.099 140.859C136.161 140.772 162.47 141.122 164.774 140.567C172.328 139.663 179.445 136.076 184.899 130.826C191.783 124.176 195.983 114.959 196.741 105.421L196.712 105.392Z" fill="#16DB93" stroke="#0F142D" stroke-miterlimit="10"/>
<path d="M133.099 63.3914C153.195 63.3914 169.47 80.7457 169.47 102.125C167.516 153.488 98.6528 153.488 96.7278 102.125C96.7278 80.7457 113.003 63.3914 133.099 63.3914ZM152.087 93.4625C154.216 91.3625 152.699 87.1916 149.666 87.25C148.791 87.25 147.916 87.6 147.245 88.3L128.578 108.163L118.953 97.9251C118.282 97.2251 117.407 96.8459 116.532 96.8459C113.499 96.7876 112.011 100.958 114.111 103.058L126.157 115.892C127.528 117.379 129.861 117.292 131.145 115.717L152.087 93.4625Z" fill="#16DB93" stroke="#0F142D" stroke-miterlimit="10"/>
<path d="M152.087 88.3004C150.745 86.8712 148.587 86.8712 147.245 88.3004L128.578 108.163L118.953 97.9255C118.282 97.2255 117.407 96.8463 116.532 96.8463C113.499 96.788 112.011 100.959 114.111 103.059L126.157 115.892C127.528 117.38 129.862 117.292 131.145 115.717L152.087 93.463C153.429 92.0338 153.429 89.7296 152.087 88.3004Z" fill="white" stroke="#0F142D" stroke-miterlimit="10"/>
</svg>
