<svg width="232" height="230" viewBox="0 0 232 230" fill="none" xmlns="http://www.w3.org/2000/svg">
<path d="M214.339 102.261V116.457L210.917 118.454V107.046C211.107 106.951 211.234 106.856 211.392 106.761C211.519 106.666 211.677 106.571 211.804 106.476C212.121 106.254 212.438 106 212.691 105.715C212.881 105.557 213.04 105.366 213.167 105.176C213.262 105.081 213.325 105.018 213.357 104.923C213.452 104.796 213.547 104.669 213.642 104.511C213.705 104.416 213.769 104.321 213.8 104.257C213.864 104.131 213.927 104.004 213.959 103.909C214.086 103.687 214.149 103.497 214.181 103.275C214.244 103.117 214.276 102.958 214.276 102.8C214.276 102.736 214.307 102.673 214.276 102.61C214.276 102.483 214.276 102.388 214.276 102.261H214.339Z" fill="#0075FF" stroke="black" stroke-miterlimit="10"/>
<path d="M21.3237 107.045V118.421L17.838 116.425V102.228C17.8063 103.876 19.0422 105.556 20.4998 106.538C20.7533 106.728 21.0385 106.886 21.3237 107.077V107.045Z" fill="#0075FF" stroke="black" stroke-miterlimit="10"/>
<path d="M214.339 116.489L214.276 172.261C214.276 172.261 214.276 172.483 214.244 172.61C214.244 172.736 214.244 172.863 214.212 172.99C214.212 172.99 214.212 173.022 214.212 173.053C214.212 173.148 214.149 173.212 214.149 173.275C214.117 173.402 214.086 173.529 214.054 173.624V173.687C213.959 173.877 213.864 174.099 213.769 174.257C213.769 174.289 213.769 174.321 213.737 174.352C213.61 174.543 213.484 174.733 213.357 174.923C213.325 174.986 213.293 175.018 213.262 175.05C213.23 175.081 213.167 175.113 213.135 175.176C212.977 175.367 212.818 175.525 212.628 175.715C212.565 175.747 212.501 175.842 212.438 175.905C212.216 176.095 211.994 176.285 211.741 176.476C211.614 176.571 211.456 176.666 211.329 176.761C211.234 176.824 211.139 176.919 211.044 176.983C210.98 176.983 210.949 177.046 210.885 177.078L199.921 183.447V124.918C202.424 123.461 212.058 117.852 214.371 116.521L214.339 116.489Z" fill="#0075FF" stroke="black" stroke-miterlimit="10"/>
<path d="M210.948 107.046V118.453L199.889 124.886V183.415C179.165 195.457 145.607 214.977 124.629 227.145C124.629 219.033 124.692 163.736 124.724 157.145L126.087 156.353H126.118C150.613 142.093 186.675 121.147 210.98 107.014L210.948 107.046Z" fill="#0075FF" stroke="black" stroke-miterlimit="10"/>
<path d="M29.0555 122.89V181.545L21.2285 177.014C18.9152 175.683 17.7744 173.94 17.7744 172.165L17.8378 116.394C20.0877 117.693 26.7106 121.527 29.0555 122.858V122.89Z" fill="#0075FF" stroke="black" stroke-miterlimit="10"/>
<path d="M108.119 157.176C108.119 163.514 108.056 219.349 108.024 227.176C84.9232 213.836 51.9989 194.854 29.0564 181.577V122.921L21.2927 118.453V107.077C46.8337 121.812 82.5466 142.41 108.119 157.176Z" fill="#0075FF" stroke="black" stroke-miterlimit="10"/>
<path d="M124.629 227.146L124.724 157.146C119.717 159.808 113.157 159.839 108.151 157.146L108.055 227.146C113.062 229.839 119.622 229.808 124.629 227.146Z" fill="#0075FF" stroke="black" stroke-miterlimit="10"/>
<path d="M210.917 97.444C215.512 100.106 215.512 104.416 210.948 107.046L124.724 157.177C120.161 159.839 112.746 159.839 108.151 157.177L21.3244 107.046C16.7295 104.384 16.7295 100.074 21.2927 97.444L107.517 47.3128C112.08 44.6509 119.495 44.6509 124.09 47.3128L210.917 97.444Z" fill="#0075FF" stroke="black" stroke-miterlimit="10"/>
<path d="M73.483 206.865L74.2752 148.431L53.6777 136.453L53.0122 194.76L73.483 206.865Z" fill="#16DB93" stroke="black" stroke-miterlimit="10"/>
<path d="M226.888 73.8682L226.73 109.233C226.73 109.233 229.994 108.028 230.596 104.701C230.596 104.606 230.691 70.1289 230.691 70.1289C230.691 70.1289 229.55 71.8401 226.857 73.8682H226.888Z" fill="#0075FF" stroke="black" stroke-miterlimit="10"/>
<path d="M1.26547 67.499L1.17041 103.466C1.17041 105.494 2.50134 107.553 5.19486 109.106L5.28993 73.1396C2.5964 71.5868 1.23378 69.5271 1.26547 67.499Z" fill="#0075FF" stroke="black" stroke-miterlimit="10"/>
<path d="M226.761 73.3918L226.666 109.327C195.263 127.643 157.459 149.571 125.833 167.95C125.833 160.567 125.929 139.621 125.96 131.984C156.762 114.08 196.087 91.2325 226.761 73.3918Z" fill="#0075FF" stroke="black" stroke-miterlimit="10"/>
<path d="M106.788 131.764C106.788 139.527 106.725 160.252 106.693 167.73C74.6243 149.224 37.1368 127.581 5.19482 109.138C5.19482 108.916 5.28989 73.3618 5.28989 73.1716C36.5981 91.2658 75.3849 113.638 106.788 131.764Z" fill="#0075FF" stroke="black" stroke-miterlimit="10"/>
<path d="M126.055 167.697L126.15 131.731C120.287 134.836 112.619 134.868 106.756 131.731L106.661 167.697C112.524 170.835 120.192 170.803 126.055 167.697Z" fill="#0075FF" stroke="black" stroke-miterlimit="10"/>
<path d="M226.666 61.9212C232.021 65.0267 232.053 70.0651 226.729 73.1389L125.928 131.731C120.604 134.836 111.922 134.836 106.535 131.731L5.03641 73.1389C-0.318948 70.0334 -0.35065 64.995 4.97302 61.9212L105.774 3.32911C111.098 0.223631 119.781 0.223631 125.168 3.32911L226.666 61.9212Z" fill="#0075FF" stroke="black" stroke-miterlimit="10"/>
<path d="M50.9854 99.6946L50.7319 135.281L71.2344 147.227L71.8365 111.451L50.9854 99.6946Z" fill="#16DB93" stroke="black" stroke-miterlimit="10"/>
<path d="M165.095 109.327L46.0728 38.2501L67.0189 26.1768L184.773 97.7928L165.095 109.327Z" fill="#16DB93" stroke="black" stroke-miterlimit="10"/>
<path d="M71.7094 111.419L182.429 36.3805L163.226 24.6558L50.9851 99.6307L71.7094 111.419Z" fill="#16DB93" stroke="black" stroke-miterlimit="10"/>
<path d="M163.194 95.9237C177.232 88.7304 179.387 82.8363 179.229 78.9703C179.134 76.8155 178.278 74.9142 176.947 73.2664C172.13 67.404 165.571 65.0907 158.283 64.6788C154.258 64.457 150.234 64.8689 146.368 66.2632C143.452 67.0554 135.372 68.5765 131.379 71.4285L118.355 80.3646" fill="#16DB93"/>
<path d="M163.194 95.9237C177.232 88.7304 179.387 82.8363 179.229 78.9703C179.134 76.8155 178.278 74.9142 176.947 73.2664C172.13 67.404 165.571 65.0907 158.283 64.6788C154.258 64.457 150.234 64.8689 146.368 66.2632C143.452 67.0554 135.372 68.5765 131.379 71.4285L118.355 80.3646" stroke="black" stroke-miterlimit="10"/>
<path d="M118.322 80.3961C134.547 73.8049 146.715 73.6465 158.186 78.3997C162.179 80.2694 165.57 82.8995 166.774 87.431C168.327 94.244 160.69 99.2191 154.479 97.4129C149.82 96.4622 145.447 94.8778 141.106 93.0082C135.18 90.4731 118.354 80.3961 118.354 80.3961H118.322Z" fill="#16DB93" stroke="black" stroke-miterlimit="10"/>
<path d="M70.2513 95.797C54.3753 87.4946 51.3015 80.3647 56.4984 73.1397C63.8819 64.2352 76.6206 62.7459 87.0778 66.1683C89.7714 67.0872 97.0281 69.5906 100.957 72.0306L115.09 80.2696" fill="#16DB93"/>
<path d="M70.2513 95.797C54.3753 87.4946 51.3015 80.3647 56.4984 73.1397C63.8819 64.2352 76.6206 62.7459 87.0778 66.1683C89.7714 67.0872 97.0281 69.5906 100.957 72.0306L115.09 80.2696" stroke="black" stroke-miterlimit="10"/>
<path d="M115.124 80.2694C98.8992 73.6782 86.7308 73.5198 75.2596 78.2731C71.2668 80.1427 67.8761 82.7728 66.672 87.3043C65.1192 94.1173 72.7562 99.0924 78.9671 97.2862C83.6253 96.3355 87.9983 94.7511 92.3397 92.8815C98.2654 90.3464 115.092 80.2694 115.092 80.2694H115.124Z" fill="#16DB93" stroke="black" stroke-miterlimit="10"/>
<path d="M60.491 17.4003C60.491 17.4003 73.1347 9.60499 77.5711 7.22835C80.0745 5.89743 82.7046 6.11922 85.2714 7.10157C94.0491 10.0803 99.5946 20.3157 101.433 23.6746C105.33 31.1848 112.46 49.5325 115.059 56.8842L97.0278 68.7991" fill="#16DB93"/>
<path d="M60.491 17.4003C60.491 17.4003 73.1347 9.60499 77.5711 7.22835C80.0745 5.89743 82.7046 6.11922 85.2714 7.10157C94.0491 10.0803 99.5946 20.3157 101.433 23.6746C105.33 31.1848 112.46 49.5325 115.059 56.8842L97.0278 68.7991" stroke="black" stroke-miterlimit="10"/>
<path d="M95.7291 67.0237C85.3669 57.6122 63.6603 40.944 58.4634 26.0187C57.3543 22.7548 58.0831 16.8607 62.678 17.0509C67.8115 17.4945 71.424 20.5049 74.7196 24.1808C84.0043 34.8598 95.7291 66.992 95.7291 66.992V67.0237Z" fill="#16DB93" stroke="black" stroke-miterlimit="10"/>
<path d="M171.179 17.3366C171.179 17.3366 158.536 9.54127 154.099 7.16463C151.596 5.83371 148.966 6.0555 146.399 7.03785C137.621 10.0166 132.076 20.252 130.238 23.611C126.34 31.1212 119.21 49.4688 116.612 56.8205L135.245 68.2284" fill="#16DB93"/>
<path d="M171.179 17.3366C171.179 17.3366 158.536 9.54127 154.099 7.16463C151.596 5.83371 148.966 6.0555 146.399 7.03785C137.621 10.0166 132.076 20.252 130.238 23.611C126.34 31.1212 119.21 49.4688 116.612 56.8205L135.245 68.2284" stroke="black" stroke-miterlimit="10"/>
<path d="M136.544 66.4544C146.842 57.138 168.042 40.755 173.207 25.9565C174.316 22.6926 173.588 16.7985 168.993 16.9886C163.859 17.4323 160.247 20.4427 156.951 24.1185C147.666 34.7976 136.544 66.4227 136.544 66.4227V66.4544Z" fill="#16DB93" stroke="black" stroke-miterlimit="10"/>
<path d="M183.222 133.95L183.887 193.08L163.416 204.837L162.624 146.53L183.222 133.95Z" fill="#16DB93" stroke="black" stroke-miterlimit="10"/>
<path d="M184.647 98.1099L185.09 133.094L165.665 144.597L165.063 109.328L184.647 98.1099Z" fill="#16DB93" stroke="black" stroke-miterlimit="10"/>
</svg>
